<?xml version="1.0" encoding="UTF-8"?>
<svg id="Layer_2" data-name="Layer 2" xmlns="http://www.w3.org/2000/svg" viewBox="0 0 215.64 252.18">
  <defs>
    <style>
      .cls-1 {
        fill: #575757;
      }
    </style>
  </defs>
  <g id="Layer_3" data-name="Layer 3">
    <path class="cls-1" d="M89.42,252.13c0-7.59,0-14.8,0-22.01,0-3.62-.11-7.24.05-10.85.11-2.4-.54-3.29-3.16-3.42-42.86-2.08-77.38-32.54-84.94-74.8C-7.65,90.63,29.06,41.73,79.96,36.36c2.69-.28,5.39-.53,8.66-.85,0-1.16.01-2.34,0-3.53-.12-9.27-.1-18.55-.45-27.81C88.04.75,89.28-.06,92.43,0c14.69.29,28.65,3.87,42.11,9.44,21.6,8.94,40.87,21.32,56.04,39.43,5.12,6.11,9.29,12.81,11.48,20.59,1.02,3.63.78,3.97-2.87,4.04-11.08.2-22.16.47-33.24.47-1.51,0-3.53-.94-4.45-2.12-17.04-21.75-39.37-33.36-66.84-35.28-5.26-.37-5.23-.36-5.11,4.98.2,8.7.18,17.42.55,26.11.14,3.29-.72,4.42-4.16,4.75-35.42,3.48-59.48,41.42-47.5,74.68,6.88,19.1,25.25,32.04,45.59,32.12,1.91,0,3.83,0,6.2,0,.07,1.19.2,2.37.2,3.55-.05,9.72-.06,19.45-.25,29.17-.05,2.47.56,3.37,3.19,3.31,39.38-.98,75.24-30.33,83.76-68.69.16-.74.17-1.51.26-2.46h-87.39c-.09-.73-.23-1.37-.23-2.02.02-10.06.11-20.13.04-30.19-.02-2.35.73-3.11,3.1-3.13,39.35-.28,78.7-.61,118.04-1.05,2.82-.03,3.38,1.18,3.66,3.48,7.11,58.52-23.08,110.2-77.85,131.53-13.37,5.21-27.23,8.25-41.51,9.39-1.78.14-3.58.02-5.83.02Z"/>
  </g>
</svg>
