<?xml version="1.0" encoding="UTF-8"?>
<svg viewBox="0 0 100 100" xmlns="http://www.w3.org/2000/svg">
  
  <g id="backpack-bg">
    {/* Main green bag body peeking out */}
    <rect x="23" y="65" width="14" height="25" rx="4" fill="#15803D" />
    <rect x="63" y="65" width="14" height="25" rx="4" fill="#15803D" />
    {/* Straps around shoulder */}
    <path d="M 30 65 Q 26 50 34 50" stroke="#15803D" strokeWidth="3" fill="none" />
    <path d="M 70 65 Q 74 50 66 50" stroke="#15803D" strokeWidth="3" fill="none" />
  </g>

  
  <g id="curly-hair-buns">
    <circle cx="23" cy="18" r="12" fill="#181310" />
    <circle cx="15" cy="13" r="10" fill="#181310" />
    <circle cx="28" cy="12" r="10" fill="#181310" />
    <circle cx="13" cy="22" r="10" fill="#181310" />
    <circle cx="22" cy="26" r="10" fill="#181310" />
    <circle cx="77" cy="18" r="12" fill="#181310" />
    <circle cx="72" cy="12" r="10" fill="#181310" />
    <circle cx="85" cy="13" r="10" fill="#181310" />
    <circle cx="87" cy="22" r="10" fill="#181310" />
    <circle cx="78" cy="26" r="10" fill="#181310" />
    <path d="M 22 55 Q 10 38 18 24 Q 31 10 50 10 Q 69 10 82 24 Q 90 38 78 55 Q 86 68 81 80 Q 72 84 68 76 Q 50 82 32 76 Q 28 84 19 80 Q 14 68 22 55 Z" fill="#181310" />
  </g>

  
  <rect x="46" y="52" width="8" height="12" fill="#A3684B" rx="2" />
  <circle cx="50" cy="42" r="21" fill="#A3684B" />

  
      <g id="body-thumbsup">
        <path d="M 30 75 Q 50 71 70 75 L 72 100 L 28 100 Z" fill="#FACC15" />
        <path d="M 32 76 L 68 76 Q 72 100 68 100 L 32 100 Q 28 100 32 76 Z" fill="#2563EB" />
        
  <g id="gear-emblem">
    <!-- Overalls Pocket with Gear Emblem -->
    <path d="M 44 80 L 56 80 L 54 91 L 46 91 Z" fill="#1D4ED8" stroke="#1E40AF" strokeWidth="0.8" />
    <g transform="translate(50, 85.5) scale(0.8)">
      <circle cx="0" cy="0" r="3.2" fill="#FACC15" />
      <rect x="-1" y="-5" width="2" height="10" rx="0.5" fill="#FACC15" />
      <rect x="-5" y="-1" width="10" height="2" rx="0.5" fill="#FACC15" />
      <g transform="rotate(45)">
        <rect x="-1" y="-5" width="2" height="10" rx="0.5" fill="#FACC15" />
        <rect x="-5" y="-1" width="10" height="2" rx="0.5" fill="#FACC15" />
      </g>
      <circle cx="0" cy="0" r="1.5" fill="#1D4ED8" />
    </g>
  </g>

        <path d="M 32 78 Q 18 72 16 62" stroke="#A3684B" strokeWidth="6" strokeLinecap="round" fill="none" />
        <circle cx="15" cy="59" r="4.5" fill="#A3684B" />
        <path d="M 15 59 L 15 53" stroke="#A3684B" strokeWidth="3" strokeLinecap="round" fill="none" />
        <circle cx="15" cy="53" r="1.5" fill="#A3684B" />
      </g>
    
  
  <path d="M 28 40 Q 21 16 50 14 Q 79 16 72 40 Q 75 28 71 22 Q 50 26 29 22 Q 25 28 28 40 Z" fill="#181310" />
  <path d="M 29 33 Q 39 39 50 33" stroke="#181310" strokeWidth="3" fill="none" strokeLinecap="round" />
  <path d="M 50 33 Q 61 39 71 33" stroke="#181310" strokeWidth="3" fill="none" strokeLinecap="round" />

  
  <g id="goggles-band">
    <path d="M 30 30 Q 50 21 70 30" stroke="#EAB308" strokeWidth="4.5" fill="none" strokeLinecap="round" />
    <rect x="33" y="19" width="34" height="12" rx="5" fill="#E2E8F0" stroke="#94A3B8" strokeWidth="1" />
    <rect x="35" y="20.5" width="30" height="9" rx="3.5" fill="#FFFFFF" />
    <rect x="37" y="21.5" width="11" height="7" rx="2.2" fill="#2563EB" />
    <rect x="52" y="21.5" width="11" height="7" rx="2.2" fill="#2563EB" />
    <line x1="39" y1="23.5" x2="42" y2="26" stroke="#FFFFFF" strokeWidth="1.2" strokeLinecap="round" />
    <line x1="54" y1="23.5" x2="57" y2="26" stroke="#FFFFFF" strokeWidth="1.2" strokeLinecap="round" />
  </g>

  
  <g id="face-details">
    <circle cx="36" cy="48" r="3" fill="#F87171" opacity="0.65" />
    <circle cx="64" cy="48" r="3" fill="#F87171" opacity="0.65" />
    <circle cx="40" cy="41" r="3.7" fill="#1F1109" />
    <circle cx="60" cy="41" r="3.7" fill="#1F1109" />
    <circle cx="38.5" cy="39.5" r="1.4" fill="#FFFFFF" />
    <circle cx="41.3" cy="42" r="0.6" fill="#FFFFFF" />
    <circle cx="58.5" cy="39.5" r="1.4" fill="#FFFFFF" />
    <circle cx="61.3" cy="42" r="0.6" fill="#FFFFFF" />
    <path d="M 48.5 45 Q 50 46.5 51.5 45" stroke="#451A03" strokeWidth="1.2" fill="none" strokeLinecap="round" />
    
      <path d="M 44 48.5 Q 50 55.5 56 48.5" fill="#991B1B" stroke="#991B1B" strokeWidth="1" strokeLinecap="round" />
      <path d="M 46 50 Q 50 53.5 54 50 Z" fill="#EF4444" />
    
  </g>

</svg>